<svg width="20" height="20" viewBox="0 0 20 20" fill="none" xmlns="http://www.w3.org/2000/svg">
  <path d="M7.641 9.99933L13.9182 3.72208C14.0838 3.55648 14.1645 3.35937 14.1602 3.13074C14.1559 2.90211 14.071 2.705 13.9054 2.53941C13.7398 2.37381 13.5427 2.29102 13.3141 2.29102C13.0855 2.29102 12.8884 2.37381 12.7228 2.53941L6.34294 8.93204C6.1923 9.08268 6.08068 9.25147 6.00803 9.43843C5.93538 9.62541 5.8991 9.81237 5.8991 9.99933C5.8991 10.1863 5.93538 10.3733 6.00803 10.5602C6.08068 10.7472 6.1923 10.916 6.34294 11.0666L12.7356 17.4592C12.9012 17.6248 13.0961 17.7055 13.3205 17.7012C13.5449 17.697 13.7398 17.612 13.9054 17.4464C14.071 17.2808 14.1538 17.0837 14.1538 16.8551C14.1538 16.6265 14.071 16.4294 13.9054 16.2638L7.641 9.99933Z" fill="#5534DA"/>
</svg>
