<svg version="1.0" xmlns="http://www.w3.org/2000/svg"
 width="512.000000pt" height="512.000000pt" viewBox="0 0 512.000000 512.000000"
 preserveAspectRatio="xMidYMid meet">

<g transform="translate(0.000000,512.000000) scale(0.100000,-0.100000)"
fill="#000000" stroke="none">
<path d="M2380 5113 c-335 -32 -573 -90 -840 -205 -802 -343 -1382 -1105
-1511 -1982 -172 -1176 493 -2317 1605 -2751 765 -299 1656 -202 2337 254 506
339 847 789 1027 1353 170 531 158 1135 -33 1654 -85 231 -247 521 -402 717
-73 93 -317 337 -410 410 -196 155 -486 317 -717 402 -190 70 -438 124 -661
145 -102 9 -315 11 -395 3z m749 -749 c-9 -11 -8 -18 1 -29 8 -9 9 -15 2 -15
-6 0 -14 5 -17 10 -5 8 -11 8 -19 0 -10 -8 -13 -4 -12 17 1 23 6 28 29 29 22
1 25 -2 16 -12z m676 -103 l40 -5 -40 -5 c-38 -6 -40 -8 -46 -46 l-5 -40 -5
40 c-4 38 -6 40 -44 44 l-40 5 40 5 c38 6 40 8 44 46 l5 40 5 -40 c6 -38 8
-40 46 -44z m-2003 -158 l28 -27 30 29 c17 16 30 24 30 19 0 -6 -11 -21 -25
-34 -19 -18 -22 -26 -13 -37 6 -8 17 -12 23 -9 8 3 13 -5 13 -20 0 -13 -4 -22
-8 -19 -10 6 -65 -118 -101 -228 -145 -444 -84 -953 161 -1348 260 -419 673
-693 1160 -770 123 -19 384 -17 495 5 120 23 224 52 314 88 40 16 76 27 78 24
8 -8 -53 -109 -119 -199 -82 -111 -252 -277 -368 -359 -176 -125 -402 -223
-623 -269 -122 -26 -373 -36 -503 -20 -380 46 -713 209 -981 482 -264 269
-419 591 -464 963 -16 135 -6 373 20 500 101 478 399 883 819 1113 59 32 80
49 73 56 -8 8 -17 5 -33 -10 -38 -34 -55 -38 -25 -6 33 36 33 40 0 75 -34 36
-18 37 19 1z m608 -154 c0 -5 -7 -9 -15 -9 -15 0 -20 12 -9 23 8 8 24 -1 24
-14z m-310 -118 c5 -11 7 -26 4 -35 -8 -21 -42 -30 -59 -16 -15 13 -20 51 -8
63 13 14 53 6 63 -12z m770 -1 c0 -21 -24 -28 -35 -10 -8 14 3 30 21 30 8 0
14 -9 14 -20z m1650 -114 c0 -7 -25 -41 -55 -75 -30 -34 -55 -66 -55 -71 0 -5
25 -37 55 -71 86 -97 72 -109 -29 -24 -35 30 -67 55 -70 55 -3 0 -33 -25 -67
-55 -97 -87 -109 -72 -23 30 l56 65 -49 58 c-77 90 -78 92 -60 92 8 0 42 -25
76 -55 34 -30 64 -55 67 -55 3 0 36 27 75 60 38 33 72 60 74 60 3 0 5 -6 5
-14z m-2402 -142 c65 -45 36 -143 -41 -144 -39 0 -62 14 -76 48 -31 74 52 142
117 96z m1294 -11 c26 -23 24 -78 -4 -97 -12 -9 -30 -16 -39 -16 -28 0 -61 34
-61 63 0 57 63 87 104 50z m-752 -13 c0 -13 -7 -20 -20 -20 -13 0 -20 7 -20
20 0 13 7 20 20 20 13 0 20 -7 20 -20z m634 -482 c8 -13 8 -23 0 -35 -28 -45
-89 -9 -64 38 13 24 48 22 64 -3z m-488 -6 c42 -27 35 -95 -11 -112 -43 -16
-85 13 -85 59 0 46 58 79 96 53z m-58 -513 c-2 -6 -8 -10 -13 -10 -5 0 -11 4
-13 10 -2 6 4 11 13 11 9 0 15 -5 13 -11z m810 -37 c-2 -23 -8 -27 -33 -27
-24 0 -31 5 -33 24 -5 32 23 54 50 40 13 -7 18 -19 16 -37z m-1348 -171 c0
-26 -17 -36 -35 -21 -18 15 -8 40 16 40 12 0 19 -7 19 -19z m334 -173 c8 -14
7 -21 -5 -33 -28 -29 -73 11 -48 42 15 17 38 13 53 -9z m1131 -92 c19 -29 11
-72 -15 -86 -47 -25 -100 4 -100 54 0 54 85 78 115 32z m-227 -272 c34 -23 27
-83 -10 -104 -25 -13 -31 -13 -55 0 -37 20 -43 70 -14 99 25 25 49 27 79 5z
m-2407 -389 c-17 -20 -31 -39 -31 -44 0 -4 11 -18 25 -31 14 -13 23 -26 20
-28 -3 -3 -19 7 -35 23 l-30 29 -30 -29 c-16 -16 -30 -24 -30 -19 0 6 11 21
25 34 l25 24 -32 33 c-38 39 -26 45 13 7 l28 -27 36 32 c47 41 54 39 16 -4z
m343 -466 c3 -17 6 -62 6 -99 l0 -68 88 -7 c147 -12 149 -31 4 -41 l-90 -7 -4
-83 c-2 -46 -7 -87 -11 -91 -15 -14 -22 12 -25 91 l-4 83 -91 7 c-50 3 -96 11
-101 16 -6 6 -8 10 -5 11 2 0 47 6 99 12 l95 12 2 55 c6 127 23 178 37 109z
m847 -392 c-7 -7 -7 -16 0 -29 10 -19 -4 -27 -16 -8 -5 8 -11 8 -19 1 -10 -8
-13 -4 -13 17 0 23 5 27 29 28 20 1 26 -2 19 -9z"/>
</g>
</svg>